<svg width="30" height="30" viewBox="0 0 30 30" fill="none" xmlns="http://www.w3.org/2000/svg">
<path d="M27.4961 22.7875C27.4961 23.6962 26.9899 25.4462 25.8524 26.4075C25.6249 26.5825 25.3974 26.4837 25.4974 26.2288C25.8286 25.4187 26.5861 23.545 26.2311 23.1137C25.9799 22.7862 24.9424 22.8113 24.0574 22.8862C23.6536 22.9375 23.2986 22.9613 23.0236 23.0175C22.7686 23.0375 22.7174 22.8137 22.9724 22.6388C23.3046 22.4045 23.6716 22.2239 24.0599 22.1038C25.4974 21.6737 27.1586 21.9325 27.3974 22.2075C27.4424 22.26 27.4961 22.4087 27.4961 22.7875ZM25.0936 24.4038C24.765 24.6572 24.4187 24.8869 24.0574 25.0912C21.4049 26.685 17.9686 27.52 14.9849 27.52C10.1811 27.52 5.8849 25.7488 2.6249 22.785C2.3449 22.5575 2.57615 22.2275 2.90365 22.4062C6.41615 24.4562 10.7636 25.6962 15.2636 25.6962C18.0961 25.6962 21.1486 25.1663 24.0574 24.0263C24.2611 23.95 24.4886 23.8462 24.6874 23.7737C25.1461 23.5675 25.5499 24.0763 25.0936 24.4038ZM17.3811 10.6163C17.3811 9.315 17.4336 8.54875 17.0024 7.89125C16.6199 7.35 15.9611 7.025 15.0411 7.07625C14.0436 7.13125 12.9724 7.785 12.6999 8.98375C12.6461 9.25875 12.4861 9.52875 12.1536 9.5875L9.1099 9.2C8.8924 9.15 8.56115 8.98375 8.6699 8.54875C9.32365 5.11 12.2624 3.91125 15.0424 3.75H15.6949C17.2199 3.75 19.1799 4.18625 20.4336 5.33C21.9549 6.75 21.7924 8.6575 21.7924 10.73V15.6388C21.7924 17.1112 22.3899 17.7638 22.9899 18.5312C23.1524 18.805 23.2086 19.1275 22.9349 19.35C22.1474 20.0521 21.3485 20.7413 20.5386 21.4175C20.3199 21.5838 19.9274 21.6013 19.7761 21.4738C18.8136 20.6675 18.5786 20.22 17.9824 19.4012C16.9449 20.49 16.0736 21.0913 15.0374 21.4175C14.3088 21.6029 13.5592 21.6937 12.8074 21.6875C10.1949 21.6875 8.12615 20.0588 8.12615 16.8375C8.12615 14.2762 9.48865 12.535 11.5011 11.7113C13.5136 10.8863 16.4386 10.6237 17.3811 10.6187M16.7849 17.1088C17.4349 16.0188 17.3811 15.1262 17.3811 13.1275C16.5661 13.1275 15.7486 13.1838 15.0424 13.35C13.7361 13.7288 12.6986 14.55 12.6986 16.2937C12.6986 17.6562 13.4086 18.5837 14.6061 18.5837C14.7711 18.5837 14.9161 18.565 15.0411 18.5275C15.8786 18.295 16.4011 17.875 16.7849 17.1088Z" fill="black"/>
</svg>
