<svg width="35" height="35" viewBox="0 0 35 35" fill="none" xmlns="http://www.w3.org/2000/svg">
<path d="M24.8646 29.575C23.4354 30.9604 21.875 30.7417 20.3729 30.0854C18.7833 29.4146 17.325 29.3854 15.6479 30.0854C13.5479 30.9896 12.4396 30.7271 11.1854 29.575C4.06872 22.2396 5.11873 11.0687 13.1979 10.6604C15.1666 10.7625 16.5375 11.7396 17.6896 11.8271C19.4104 11.4771 21.0583 10.4708 22.8958 10.6021C25.0979 10.7771 26.7604 11.6521 27.8541 13.2271C23.3041 15.9542 24.3833 21.9479 28.5541 23.625C27.7229 25.8125 26.6437 27.9854 24.85 29.5896L24.8646 29.575ZM17.5437 10.5729C17.325 7.32083 19.9646 4.6375 22.9979 4.375C23.4208 8.1375 19.5854 10.9375 17.5437 10.5729Z" fill="black"/>
</svg>
