<svg width="30" height="30" viewBox="0 0 30 30" fill="none" xmlns="http://www.w3.org/2000/svg">
<path d="M12.885 21.6825H13.9425V17.4525C14.3833 17.4525 14.7579 17.2983 15.0663 16.99C15.3746 16.6816 15.5288 16.3066 15.5288 15.865V12.6925H14.4712V15.865H13.9425V12.6925H12.885V15.865H12.3563V12.6925H11.2987V15.865C11.2987 16.3066 11.4529 16.6816 11.7613 16.99C12.0696 17.2983 12.4442 17.4525 12.885 17.4525V21.6825ZM17.115 21.6825H18.1737V12.6925C17.5979 12.6925 17.1012 12.8996 16.6838 13.3137C16.2671 13.7279 16.0588 14.2258 16.0588 14.8075V17.9812H17.115V21.6825ZM6.25 25V11.875L15 5.28748L23.75 11.875V25H6.25ZM7.5 23.75H22.5V12.5L15 6.87498L7.5 12.5V23.75Z" fill="black"/>
</svg>
