<svg width="30" height="30" viewBox="0 0 30 30" fill="none" xmlns="http://www.w3.org/2000/svg">
<path d="M17.5 13.75H18.75C19.413 13.75 20.0489 14.0134 20.5178 14.4822C20.9866 14.9511 21.25 15.587 21.25 16.25V20C21.25 20.4973 21.4475 20.9742 21.7992 21.3258C22.1508 21.6775 22.6277 21.875 23.125 21.875C23.6223 21.875 24.0992 21.6775 24.4508 21.3258C24.8025 20.9742 25 20.4973 25 20V11.25L21.25 7.5M5 25V7.5C5 6.83696 5.26339 6.20107 5.73223 5.73223C6.20107 5.26339 6.83696 5 7.5 5H15C15.663 5 16.2989 5.26339 16.7678 5.73223C17.2366 6.20107 17.5 6.83696 17.5 7.5V25M3.75 25H18.75" stroke="black" stroke-width="2" stroke-linecap="round" stroke-linejoin="round"/>
<path d="M22.5 8.75V10C22.5 10.3315 22.6317 10.6495 22.8661 10.8839C23.1005 11.1183 23.4185 11.25 23.75 11.25H25M5 13.75H17.5" stroke="black" stroke-width="2" stroke-linecap="round" stroke-linejoin="round"/>
</svg>
