<svg width="30" height="30" viewBox="0 0 30 30" fill="none" xmlns="http://www.w3.org/2000/svg">
<path d="M13.75 11.25H27.5M2.5 13.75L6.00875 9.80375C6.47785 9.27586 7.05345 8.85332 7.69765 8.56397C8.34185 8.27461 9.04005 8.12501 9.74625 8.125H10M2.5 24.375H9.375L14.375 20.625C14.375 20.625 15.3875 19.9413 16.875 18.75C20 16.25 16.875 12.2925 13.75 14.375C11.205 16.0712 8.75 17.5 8.75 17.5" stroke="black" stroke-width="1.5" stroke-linecap="round" stroke-linejoin="round"/>
<path d="M10 16.875V8.75C10 8.08696 10.2634 7.45107 10.7322 6.98223C11.2011 6.51339 11.837 6.25 12.5 6.25H25C25.663 6.25 26.2989 6.51339 26.7678 6.98223C27.2366 7.45107 27.5 8.08696 27.5 8.75V16.25C27.5 16.913 27.2366 17.5489 26.7678 18.0178C26.2989 18.4866 25.663 18.75 25 18.75H16.875" stroke="black" stroke-width="1.5"/>
</svg>
