<svg width="30" height="30" viewBox="0 0 30 30" fill="none" xmlns="http://www.w3.org/2000/svg">
<g clip-path="url(#clip0_42_309)">
<path d="M10.7144 18.2143H19.2858M15.0001 13.9286V22.5M21.4287 7.49998V3.21427C21.4287 2.64595 21.2029 2.1009 20.801 1.69904C20.3992 1.29718 19.8541 1.07141 19.2858 1.07141H10.7144C10.1461 1.07141 9.60103 1.29718 9.19916 1.69904C8.7973 2.1009 8.57153 2.64595 8.57153 3.21427V7.49998M26.7858 7.49998H3.21439C2.64607 7.49998 2.10103 7.72575 1.69916 8.12761C1.2973 8.52947 1.07153 9.07452 1.07153 9.64284V26.7857C1.07153 27.354 1.2973 27.8991 1.69916 28.3009C2.10103 28.7028 2.64607 28.9286 3.21439 28.9286H26.7858C27.3541 28.9286 27.8992 28.7028 28.301 28.3009C28.7029 27.8991 28.9287 27.354 28.9287 26.7857V9.64284C28.9287 9.07452 28.7029 8.52947 28.301 8.12761C27.8992 7.72575 27.3541 7.49998 26.7858 7.49998Z" stroke="black" stroke-linecap="round" stroke-linejoin="round"/>
</g>
<defs>
<clipPath id="clip0_42_309">
<rect width="30" height="30" fill="white"/>
</clipPath>
</defs>
</svg>
