<svg width="30" height="30" viewBox="0 0 30 30" fill="none" xmlns="http://www.w3.org/2000/svg">
<path d="M19.6875 2.5C20.4334 2.5 21.1488 2.79632 21.6762 3.32376C22.2037 3.85121 22.5 4.56658 22.5 5.3125V24.6875C22.5 25.4334 22.2037 26.1488 21.6762 26.6762C21.1488 27.2037 20.4334 27.5 19.6875 27.5H10.3125C9.56658 27.5 8.85121 27.2037 8.32376 26.6762C7.79632 26.1488 7.5 25.4334 7.5 24.6875V5.3125C7.5 4.56658 7.79632 3.85121 8.32376 3.32376C8.85121 2.79632 9.56658 2.5 10.3125 2.5H19.6875ZM19.6875 4.375H10.3125C10.0639 4.375 9.8254 4.47377 9.64959 4.64959C9.47377 4.8254 9.375 5.06386 9.375 5.3125V24.6875C9.375 25.205 9.795 25.625 10.3125 25.625H19.6875C19.9361 25.625 20.1746 25.5262 20.3504 25.3504C20.5262 25.1746 20.625 24.9361 20.625 24.6875V5.3125C20.625 5.06386 20.5262 4.8254 20.3504 4.64959C20.1746 4.47377 19.9361 4.375 19.6875 4.375ZM16.5612 21.875C16.8099 21.8747 17.0485 21.9731 17.2245 22.1487C17.4006 22.3243 17.4997 22.5626 17.5 22.8113C17.5003 23.0599 17.4019 23.2985 17.2263 23.4745C17.0507 23.6506 16.8124 23.7497 16.5638 23.75L13.4388 23.755C13.1901 23.7553 12.9515 23.6569 12.7755 23.4813C12.5994 23.3057 12.5003 23.0674 12.5 22.8187C12.4997 22.5701 12.5981 22.3315 12.7737 22.1555C12.9493 21.9794 13.1876 21.8803 13.4362 21.88L16.5612 21.875Z" fill="black"/>
</svg>
