<svg width="30" height="30" viewBox="0 0 30 30" fill="none" xmlns="http://www.w3.org/2000/svg">
<path d="M24.7251 11.8L22.4251 5.55C22.2799 5.12005 22.0046 4.74589 21.6373 4.47937C21.27 4.21286 20.8289 4.06717 20.3751 4.0625H9.62507C9.17733 4.06351 8.74067 4.20188 8.37407 4.45895C8.00747 4.71602 7.72859 5.07939 7.57507 5.5L5.27507 11.75C4.90599 11.9266 4.59349 12.2027 4.37267 12.5472C4.15185 12.8917 4.03148 13.2909 4.02507 13.7V19.325C4.0179 19.6907 4.10357 20.0522 4.27408 20.3757C4.4446 20.6992 4.69438 20.9742 5.00007 21.175C5.00007 21.175 5.00007 21.25 5.00007 21.25V23.75C5.00007 24.0815 5.13177 24.3995 5.36619 24.6339C5.60061 24.8683 5.91855 25 6.25007 25H7.50007C7.8316 25 8.14954 24.8683 8.38396 24.6339C8.61838 24.3995 8.75007 24.0815 8.75007 23.75V21.5625H21.2501V23.75C21.2501 24.0815 21.3818 24.3995 21.6162 24.6339C21.8506 24.8683 22.1686 25 22.5001 25H23.7501C24.0816 25 24.3995 24.8683 24.634 24.6339C24.8684 24.3995 25.0001 24.0815 25.0001 23.75V21.175C25.294 20.976 25.5344 20.7077 25.7001 20.3938C25.8658 20.0798 25.9516 19.73 25.9501 19.375V13.75C25.946 13.3435 25.8293 12.9461 25.6131 12.6019C25.3969 12.2577 25.0895 11.9801 24.7251 11.8ZM24.0626 19.375C24.0626 19.4579 24.0297 19.5374 23.971 19.596C23.9124 19.6546 23.833 19.6875 23.7501 19.6875H6.25007C6.16719 19.6875 6.08771 19.6546 6.0291 19.596C5.9705 19.5374 5.93757 19.4579 5.93757 19.375V13.75C5.93757 13.6671 5.9705 13.5876 6.0291 13.529C6.08771 13.4704 6.16719 13.4375 6.25007 13.4375H23.7501C23.833 13.4375 23.9124 13.4704 23.971 13.529C24.0297 13.5876 24.0626 13.6671 24.0626 13.75V19.375ZM9.33757 6.1375C9.36004 6.07926 9.39943 6.02909 9.45068 5.99344C9.50192 5.95779 9.56266 5.93831 9.62507 5.9375H20.3751C20.4375 5.93831 20.4982 5.95779 20.5495 5.99344C20.6007 6.02909 20.6401 6.07926 20.6626 6.1375L22.4126 10.9375H7.58757L9.33757 6.1375Z" fill="black"/>
<path d="M10 18.4375C11.0355 18.4375 11.875 17.598 11.875 16.5625C11.875 15.527 11.0355 14.6875 10 14.6875C8.96447 14.6875 8.125 15.527 8.125 16.5625C8.125 17.598 8.96447 18.4375 10 18.4375Z" fill="black"/>
<path d="M20 18.4375C21.0355 18.4375 21.875 17.598 21.875 16.5625C21.875 15.527 21.0355 14.6875 20 14.6875C18.9645 14.6875 18.125 15.527 18.125 16.5625C18.125 17.598 18.9645 18.4375 20 18.4375Z" fill="black"/>
</svg>
